<?xml version="1.0" encoding="iso-8859-1"?>
<!-- Generator: Adobe Illustrator 19.0.0, SVG Export Plug-In . SVG Version: 6.00 Build 0)  -->
<svg version="1.1" id="Layer_1" xmlns="http://www.w3.org/2000/svg" xmlns:xlink="http://www.w3.org/1999/xlink" x="0px" y="0px"
	 viewBox="0 0 290.624 290.624" style="enable-background:new 0 0 290.624 290.624;" xml:space="preserve">
<g>
	<g>
		<circle style="fill:#F9BA48;" cx="206.25" cy="206.25" r="79.688"/>
		<rect x="70.313" y="79.688" style="fill:#F9BA48;" width="121.875" height="14.063"/>
		<path style="fill:#333333;" d="M262.5,143.541V0H0v187.5h69.117l20.086,80.822l9.089-2.269l-3.816-15.263l8.808-4.894
			l20.63,11.789l-9.145,5.484l4.823,8.039l13.65-8.189l14.423,8.241l1.659-2.902c15.033,13.772,34.983,22.266,56.925,22.266
			c46.523,0,84.375-37.852,84.375-84.375C290.625,181.35,279.717,159,262.5,143.541z M279.858,192.033
			c-10.908-6.591-30.811-16.955-53.587-21.267c2.123-7.598,6.863-14.306,13.608-18.802l9.952-6.633
			C265.134,156.314,276.159,172.861,279.858,192.033z M131.25,206.25c0-0.773,0.094-1.528,0.117-2.297
			c1.467-0.98,3.745-2.428,6.609-4.139l26.208,15.727c-9.45,8.578-16.589,19.523-20.752,31.561
			C135.759,235.336,131.25,221.316,131.25,206.25z M87.174,221.569l15.952-8.7l20.344,11.095l-20.109,11.17l-14.92-8.527
			L87.174,221.569z M187.5,124.05c-17.273,3.942-32.508,13.195-43.959,25.95H75V84.375h112.5V124.05z M76.317,178.125h13.847
			l-12.117,6.923L76.317,178.125z M105.352,180.239l17.972,10.781c-0.009,0.052-0.014,0.108-0.023,0.164l-20.175,11.006
			l-18.511-10.097L105.352,180.239z M122.063,202.538c-0.052,1.237-0.188,2.461-0.188,3.712c0,2.142,0.164,4.242,0.323,6.342
			l-9.286-5.063L122.063,202.538z M120.047,178.125h6.75c-0.394,1.111-0.844,2.198-1.195,3.333L120.047,178.125z M130.781,168.75H75
			v-9.375h61.144C134.142,162.361,132.394,165.516,130.781,168.75z M93.338,207.53l-8.512,4.641l-2.686-10.748L93.338,207.53z
			 M171.497,208.997l-24.061-14.438c10.505-5.442,24.661-11.452,40.041-14.466c-0.094,9.413-4.153,18.384-11.198,24.647
			L171.497,208.997z M138.023,188.911l-4.045-2.428c4.603-16.805,14.887-31.252,28.692-41.152l9.952,6.633
			c6.745,4.5,11.484,11.203,13.608,18.802C166.805,174.445,149.484,182.508,138.023,188.911z M177.825,144.164l-6.412-4.275
			c9.108-4.8,19.322-7.73,30.15-8.405v37.448c-2.002,0.098-3.989,0.239-5.967,0.45C193.055,159.178,186.802,150.155,177.825,144.164
			z M210.937,131.489c10.828,0.675,21.042,3.6,30.15,8.405l-6.412,4.275c-8.981,5.991-15.23,15.014-17.775,25.223
			c-1.973-0.216-3.961-0.361-5.962-0.455L210.937,131.489L210.937,131.489z M9.375,9.375h243.75v126.769
			c-13.416-9-29.541-14.269-46.875-14.269c-3.173,0-6.291,0.211-9.375,0.553V75H65.625v75H56.25v9.375h9.375v14.063v4.688H9.375
			V9.375z M92.128,241.373l-0.544-2.17l2.194,1.252L92.128,241.373z M112.87,240.572l13.458-7.477
			c2.147,6.375,5.048,12.398,8.578,17.995l-1.772,1.064L112.87,240.572z M150.511,256.256C153.684,243.094,160.852,231,170.977,222
			l11.531-10.256c9.131-8.109,14.367-19.767,14.367-31.978c0-0.366-0.056-0.717-0.066-1.078c1.58-0.164,3.164-0.281,4.753-0.366
			v102.694C181.322,279.75,163.27,270.459,150.511,256.256z M210.937,281.011V178.322c1.594,0.084,3.173,0.202,4.753,0.366
			c-0.009,0.361-0.066,0.712-0.066,1.078c0,12.211,5.236,23.873,14.362,31.978L241.519,222c10.125,9,17.292,21.094,20.466,34.256
			C249.23,270.459,231.178,279.75,210.937,281.011z M269.062,247.102c-4.247-12.281-11.578-23.456-21.319-32.109l-11.531-10.256
			c-7.045-6.262-11.105-15.23-11.198-24.647c26.48,5.189,49.364,19.364,56.114,23.859c0.028,0.773,0.122,1.528,0.122,2.302
			C281.25,221.316,276.74,235.336,269.062,247.102z"/>
		<rect x="234.375" y="18.75" style="fill:#333333;" width="9.375" height="9.375"/>
		<rect x="168.75" y="18.75" style="fill:#333333;" width="37.5" height="9.375"/>
		<rect x="215.625" y="18.75" style="fill:#333333;" width="9.375" height="9.375"/>
	</g>
</g>
<g>
</g>
<g>
</g>
<g>
</g>
<g>
</g>
<g>
</g>
<g>
</g>
<g>
</g>
<g>
</g>
<g>
</g>
<g>
</g>
<g>
</g>
<g>
</g>
<g>
</g>
<g>
</g>
<g>
</g>
</svg>
