<?xml version="1.0" encoding="iso-8859-1"?>
<!-- Generator: Adobe Illustrator 19.0.0, SVG Export Plug-In . SVG Version: 6.00 Build 0)  -->
<svg version="1.1" id="Capa_1" xmlns="http://www.w3.org/2000/svg" xmlns:xlink="http://www.w3.org/1999/xlink" x="0px" y="0px"
	 viewBox="0 0 512 512" style="enable-background:new 0 0 512 512;" xml:space="preserve">
<circle style="fill:#333333;" cx="255.188" cy="256" r="255.188"/>
<g>
	<polygon style="fill:#F4D600;" points="163.979,345.607 169.953,386.544 112.846,386.544 76.823,311.221 135.835,267.15 
		123.9,192.096 67.612,192.096 97.457,248.383 60.666,277.447 1.091,152.874 159.719,152.874 181.095,281.119 130.718,324.295 
		142.667,345.607 	"/>
	<polygon style="fill:#F4D600;" points="349.112,345.607 343.137,386.544 400.243,386.544 436.267,311.221 377.255,267.15 
		389.191,192.096 445.478,192.096 415.633,248.383 452.425,277.447 512,152.874 353.371,152.874 331.994,281.119 382.372,324.295 
		370.424,345.607 	"/>
	<polygon style="fill:#F4D600;" points="315.186,66.306 302.394,137.522 276.808,137.522 276.808,66.306 256.545,66.306 
		236.281,66.306 236.281,137.522 210.697,137.522 197.904,66.306 156.328,66.306 174.864,175.043 256.545,175.043 338.226,175.043 
		356.762,66.306 	"/>
	<polygon style="fill:#F4D600;" points="325.42,250.097 336.55,184.855 176.54,184.855 213.345,400.679 299.746,400.679 
		315.315,309.392 272.012,309.392 262.302,361.816 250.788,361.816 239.417,300.411 267.628,300.411 274.664,259.475 
		231.837,259.475 225.203,223.655 287.887,223.655 282.988,250.097 	"/>
	<polygon style="fill:#F4D600;" points="312.459,447.525 299.746,410.491 213.345,410.491 200.632,447.525 	"/>
</g>
<g>
</g>
<g>
</g>
<g>
</g>
<g>
</g>
<g>
</g>
<g>
</g>
<g>
</g>
<g>
</g>
<g>
</g>
<g>
</g>
<g>
</g>
<g>
</g>
<g>
</g>
<g>
</g>
<g>
</g>
</svg>
